<svg xmlns="http://www.w3.org/2000/svg" width="512" height="512" viewBox="0 0 512 512" fill="none"><g id="favicon-mdc"><path id="icon-mdc" fill-rule="evenodd" clip-rule="evenodd" d="M68.4707 70.2233C60.0463 71.459 53.2016 78.2071 51.6063 86.8504C51.228 88.8985 51.0901 136.613 51.1898 230.731C51.3161 349.119 51.4618 371.871 52.1071 373.581C53.9848 378.555 59.6885 384.006 65.0531 385.954C67.8215 386.959 70.9982 387.017 138.294 387.3L208.641 387.596L212.308 389.023C217.507 391.046 220.906 393.154 224.539 396.608C231.143 402.887 234.573 410.302 235.547 420.408C236.251 427.71 237.131 430.53 239.806 434.058C244.982 440.883 254.598 443.952 262.526 441.311C267.986 439.492 273.224 434.053 275.079 428.278C275.52 426.904 276.137 423.135 276.448 419.902C277.34 410.653 280.111 404.24 285.793 398.275C289.584 394.296 294.507 391.076 299.794 389.12L303.913 387.596L374.26 387.319L444.607 387.042L447.79 385.758C454.085 383.218 459.135 376.962 460.394 370.143C460.772 368.095 460.91 320.381 460.81 226.262C460.684 107.875 460.538 85.1222 459.893 83.4128C458.015 78.4389 452.312 72.9875 446.947 71.039C444.191 70.0379 441.436 69.9793 389.216 69.7994C331.724 69.6024 320.621 69.8957 310.919 71.8713C291.791 75.7655 272.643 86.7818 259.909 101.219L256.091 105.548L251.948 101C243.689 91.9366 233.895 84.7171 222.545 79.3271C210.906 73.7999 200.587 71.1442 187.204 70.2311C178.086 69.6091 72.7043 69.6019 68.4707 70.2233ZM192.39 111.409C205.654 113.965 218.689 122.427 226.054 133.263C229.184 137.868 232.345 144.68 233.909 150.192C235.093 154.362 235.178 155.821 235.372 175.233L235.578 195.847H202.529H169.479L167.596 197.728L165.713 199.61V216.322V233.034L167.596 234.916L169.479 236.798H202.492H235.505V295.975V355.153L232.043 353.597C223.424 349.724 215.255 347.696 205.04 346.895C201.537 346.62 174.554 346.389 145.079 346.382L91.4885 346.368V228.497V110.625H139.907C179.381 110.625 189.076 110.77 192.39 111.409ZM420.512 228.465V346.304L362.212 346.509C310.607 346.691 303.33 346.822 298.833 347.644C292.563 348.79 285.797 350.882 280.511 353.308L276.495 355.151V295.974V236.798H309.508H342.521L344.404 234.916L346.287 233.034V216.322V199.61L344.404 197.728L342.521 195.847H309.508H276.495V176.804C276.495 162.662 276.696 156.715 277.279 153.7C280.882 135.042 294.507 119.464 312.555 113.369C320.343 110.739 320.49 110.732 371.906 110.677L420.512 110.625V228.465Z" fill="url(#paint0_linear_187_39)"></path></g><defs><linearGradient id="paint0_linear_187_39" x1="110.648" y1="69.7473" x2="276.166" y2="442.253" gradientUnits="userSpaceOnUse"><stop stop-color="#60A5FA"></stop><stop offset="1" stop-color="#2563EB"></stop></linearGradient></defs></svg>